<?xml version="1.0" encoding="utf-8"?>
<!-- Generator: Adobe Illustrator 28.1.0, SVG Export Plug-In . SVG Version: 6.00 Build 0)  -->
<svg version="1.1" id="Слой_1" xmlns="http://www.w3.org/2000/svg" xmlns:xlink="http://www.w3.org/1999/xlink" x="0px" y="0px"
	 viewBox="0 0 64 64" style="enable-background:new 0 0 64 64;" xml:space="preserve">
<style type="text/css">
	.st0{fill:url(#SVGID_1_);}
	.st1{fill:url(#SVGID_00000029006609753453141830000002551554781980429723_);}
	.st2{fill:url(#SVGID_00000062876058397690589560000015896975636955025844_);}
	.st3{fill:url(#SVGID_00000036239763316743972970000003115273265311149969_);}
	.st4{fill:url(#SVGID_00000100343051025092946220000007744020596482496178_);}
	.st5{fill:#DB0819;}
</style>
<g>
	<linearGradient id="SVGID_1_" gradientUnits="userSpaceOnUse" x1="15.1416" y1="42.508" x2="15.1416" y2="59.5895">
		<stop  offset="0" style="stop-color:#2A3E91"/>
		<stop  offset="1" style="stop-color:#0E2356"/>
	</linearGradient>
	<path class="st0" d="M21.5,42c-2.7,0-5.3,1.5-6.3,2.9c-1-1.4-3.6-2.9-6.3-2.9H3.9v20h4.9V46.9c1.9,0.1,4.1,1.4,4.1,4.2V62h4.5V51.1
		c0-2.8,2.2-4.1,4.1-4.2V62h4.9V42H21.5z"/>
	
		<linearGradient id="SVGID_00000003789685439004449370000005300911779930125491_" gradientUnits="userSpaceOnUse" x1="34.8123" y1="42.508" x2="34.8123" y2="59.5895">
		<stop  offset="0" style="stop-color:#2A3E91"/>
		<stop  offset="1" style="stop-color:#0E2356"/>
	</linearGradient>
	<path style="fill:url(#SVGID_00000003789685439004449370000005300911779930125491_);" d="M32.2,46.8v2.9h5.2v4.6h-5.2v2.9l7.7,0V62
		l-12.6,0V42h15.1v4.8C42.4,46.8,32.2,46.8,32.2,46.8z"/>
	
		<linearGradient id="SVGID_00000167397325935273866880000005760650491630972299_" gradientUnits="userSpaceOnUse" x1="50.4066" y1="42.508" x2="50.4066" y2="59.5895">
		<stop  offset="0" style="stop-color:#2A3E91"/>
		<stop  offset="1" style="stop-color:#0E2356"/>
	</linearGradient>
	<path style="fill:url(#SVGID_00000167397325935273866880000005760650491630972299_);" d="M60.1,57.2v5.7h-4.9V62h-9.4v0.9h-4.9
		v-5.7h0.7c1,0,1.7-0.3,1.7-1.6V42h14.4v15.2C57.6,57.2,60.1,57.2,60.1,57.2z M52.7,57.2V46.8h-4.5v8.8c0,0.6-0.1,1.1-0.1,1.6H52.7z
		"/>
	
		<linearGradient id="SVGID_00000077292455631939505160000008944705181891112078_" gradientUnits="userSpaceOnUse" x1="25.4952" y1="40.008" x2="25.4952" y2="13.6109">
		<stop  offset="0" style="stop-color:#2A3E91"/>
		<stop  offset="1" style="stop-color:#0E2356"/>
	</linearGradient>
	<path style="fill:url(#SVGID_00000077292455631939505160000008944705181891112078_);" d="M3.8,1.6V11h8.9v30.2h9.8V11h13.6
		c2.4-4.3,6.3-7.8,11-9.5C47.2,1.6,3.8,1.6,3.8,1.6z"/>
	
		<linearGradient id="SVGID_00000170261921873611522160000009853282803135306895_" gradientUnits="userSpaceOnUse" x1="46.3352" y1="40.008" x2="46.3352" y2="13.6109">
		<stop  offset="0" style="stop-color:#2A3E91"/>
		<stop  offset="1" style="stop-color:#0E2356"/>
	</linearGradient>
	<path style="fill:url(#SVGID_00000170261921873611522160000009853282803135306895_);" d="M49.8,40.5c-8.4-2.2-14.6-10-14.6-19.1
		c0-9.3,6.3-17,14.7-19.1c1.8-0.5,3.7-0.7,6.9-0.7h0.8V11h-0.8c-3.3,0-5.6,0.6-7.4,1.9c-2.5,1.7-4.4,5-4.4,8.5s1.8,6.7,4.4,8.5
		c1.8,1.3,4.1,1.9,7.4,1.9h0.8v9.5h-0.8C53.7,41.2,51.6,41,49.8,40.5z"/>
	<g>
		<g>
			<rect x="49.6" y="19.2" class="st5" width="11.3" height="4.4"/>
		</g>
		<g>
			<rect x="53.1" y="15.7" class="st5" width="4.4" height="11.3"/>
		</g>
	</g>
</g>
</svg>
