<?xml version="1.0" encoding="utf-8"?>
<!-- Generator: Adobe Illustrator 28.1.0, SVG Export Plug-In . SVG Version: 6.00 Build 0)  -->
<svg version="1.1" id="Слой_1" xmlns="http://www.w3.org/2000/svg" xmlns:xlink="http://www.w3.org/1999/xlink" x="0px" y="0px"
	 viewBox="0 0 48 48" style="enable-background:new 0 0 48 48;" xml:space="preserve">
<style type="text/css">
	.st0{fill:url(#SVGID_1_);}
	.st1{fill:url(#SVGID_00000147180825454114417210000013693282141452543913_);}
	.st2{fill:url(#SVGID_00000018949672367559079580000003792444216298567079_);}
	.st3{fill:url(#SVGID_00000106107737074394219750000004258180911150116254_);}
	.st4{fill:url(#SVGID_00000096774179850481266210000008240496141539231651_);}
	.st5{fill:#DB0819;}
</style>
<g>
	<linearGradient id="SVGID_1_" gradientUnits="userSpaceOnUse" x1="11.4483" y1="31.9341" x2="11.4483" y2="44.7468">
		<stop  offset="0" style="stop-color:#2A3E91"/>
		<stop  offset="1" style="stop-color:#0E2356"/>
	</linearGradient>
	<path class="st0" d="M16.2,31.5c-2,0-4,1.1-4.7,2.2c-0.8-1.1-2.7-2.2-4.7-2.2H3v15h3.7V35.2c1.4,0.1,3,1.1,3,3.2v8.2h3.4v-8.2
		c0-2.1,1.6-3.1,3-3.2v11.3h3.7v-15H16.2z"/>
	
		<linearGradient id="SVGID_00000116917194935692319610000017730543714995679127_" gradientUnits="userSpaceOnUse" x1="26.2032" y1="31.9341" x2="26.2032" y2="44.7468">
		<stop  offset="0" style="stop-color:#2A3E91"/>
		<stop  offset="1" style="stop-color:#0E2356"/>
	</linearGradient>
	<path style="fill:url(#SVGID_00000116917194935692319610000017730543714995679127_);" d="M24.2,35.1v2.2h3.9v3.5h-3.9V43l5.8,0v3.6
		l-9.5,0v-15h11.3v3.6C31.9,35.1,24.2,35.1,24.2,35.1z"/>
	
		<linearGradient id="SVGID_00000054967847276859165130000015804431627919759265_" gradientUnits="userSpaceOnUse" x1="37.9004" y1="31.9341" x2="37.9004" y2="44.7468">
		<stop  offset="0" style="stop-color:#2A3E91"/>
		<stop  offset="1" style="stop-color:#0E2356"/>
	</linearGradient>
	<path style="fill:url(#SVGID_00000054967847276859165130000015804431627919759265_);" d="M45.1,43v4.2h-3.7v-0.6h-7.1v0.6h-3.7V43
		h0.5c0.8,0,1.3-0.2,1.3-1.2V31.5h10.8V43C43.3,43,45.1,43,45.1,43z M39.6,43v-7.8h-3.4v6.6c0,0.4,0,0.8-0.1,1.2H39.6z"/>
	
		<linearGradient id="SVGID_00000172419341542394148330000001130895849798977196_" gradientUnits="userSpaceOnUse" x1="19.2145" y1="30.0588" x2="19.2145" y2="10.2585">
		<stop  offset="0" style="stop-color:#2A3E91"/>
		<stop  offset="1" style="stop-color:#0E2356"/>
	</linearGradient>
	<path style="fill:url(#SVGID_00000172419341542394148330000001130895849798977196_);" d="M2.9,1.2v7.1h6.7V31H17V8.3h10.2
		c1.8-3.3,4.7-5.8,8.3-7.1C35.5,1.2,2.9,1.2,2.9,1.2z"/>
	
		<linearGradient id="SVGID_00000047023182153025089090000004920524522707054520_" gradientUnits="userSpaceOnUse" x1="34.8465" y1="30.0588" x2="34.8465" y2="10.2585">
		<stop  offset="0" style="stop-color:#2A3E91"/>
		<stop  offset="1" style="stop-color:#0E2356"/>
	</linearGradient>
	<path style="fill:url(#SVGID_00000047023182153025089090000004920524522707054520_);" d="M37.4,30.4c-6.3-1.6-11-7.5-11-14.4
		c0-6.9,4.7-12.8,11-14.4c1.3-0.3,2.8-0.5,5.2-0.5h0.6v7.1h-0.6c-2.5,0-4.2,0.5-5.6,1.4c-1.9,1.3-3.3,3.8-3.3,6.3s1.4,5,3.3,6.3
		c1.4,1,3.1,1.4,5.6,1.4h0.6V31h-0.6C40.3,31,38.8,30.8,37.4,30.4z"/>
	<g>
		<g>
			<rect x="37.3" y="14.4" class="st5" width="8.5" height="3.3"/>
		</g>
		<g>
			<rect x="39.9" y="11.8" class="st5" width="3.3" height="8.5"/>
		</g>
	</g>
</g>
</svg>
