<?xml version="1.0" encoding="utf-8"?>
<!-- Generator: Adobe Illustrator 28.1.0, SVG Export Plug-In . SVG Version: 6.00 Build 0)  -->
<svg version="1.1" id="Слой_1" xmlns="http://www.w3.org/2000/svg" xmlns:xlink="http://www.w3.org/1999/xlink" x="0px" y="0px"
	 viewBox="0 0 170 50" style="enable-background:new 0 0 170 50;" xml:space="preserve">
<style type="text/css">
	.st0{fill:url(#SVGID_1_);}
	.st1{fill:url(#SVGID_00000182511143817150927130000018175420979359408789_);}
	.st2{fill:url(#SVGID_00000009572605316742104120000001337283054045267890_);}
	.st3{fill:url(#SVGID_00000093872308517350908190000001413218626352998051_);}
	.st4{fill:url(#SVGID_00000135688819970344820480000002754505123246511034_);}
	.st5{fill:#DB0819;}
</style>
<g>
	<linearGradient id="SVGID_1_" gradientUnits="userSpaceOnUse" x1="58.5121" y1="24.1535" x2="169.1218" y2="24.1535">
		<stop  offset="0" style="stop-color:#2A3E91"/>
		<stop  offset="1" style="stop-color:#0E2356"/>
	</linearGradient>
	<path class="st0" d="M93.51,4.31c-5.35,0-10.51,2.89-12.53,5.75c-2-2.86-7.18-5.75-12.53-5.75h-9.78v12.42
		c1.94,1.86,3.13,4.51,3.13,7.4s-1.19,5.54-3.13,7.4v12.45h9.78v-29.9c3.75,0.16,8.05,2.81,8.05,8.35v21.55h8.97V22.44
		c0-5.54,4.32-8.18,8.05-8.35v29.9h9.78V4.31H93.51z"/>
	
		<linearGradient id="SVGID_00000069365975495843571900000003266892330395913124_" gradientUnits="userSpaceOnUse" x1="58.5121" y1="24.1562" x2="169.1218" y2="24.1562">
		<stop  offset="0" style="stop-color:#2A3E91"/>
		<stop  offset="1" style="stop-color:#0E2356"/>
	</linearGradient>
	<path style="fill:url(#SVGID_00000069365975495843571900000003266892330395913124_);" d="M114.8,13.81v5.75h10.35v9.2H114.8v5.75
		l15.25-0.01v9.49l-25.02,0.01V4.32h29.89v9.49H114.8z"/>
	
		<linearGradient id="SVGID_00000146470982220945147710000015209112839041460146_" gradientUnits="userSpaceOnUse" x1="58.5121" y1="25.0119" x2="169.1218" y2="25.0119">
		<stop  offset="0" style="stop-color:#2A3E91"/>
		<stop  offset="1" style="stop-color:#0E2356"/>
	</linearGradient>
	<path style="fill:url(#SVGID_00000146470982220945147710000015209112839041460146_);" d="M170,34.51v11.2h-9.77v-1.71h-18.69v1.71
		h-9.77v-11.2h1.44c2.01,0,3.45-0.63,3.45-3.22V4.32h28.46v30.19H170z M155.34,34.51v-20.7h-8.91v17.48c0,1.15-0.11,2.18-0.29,3.22
		H155.34z"/>
	
		<linearGradient id="SVGID_00000067225265775588715930000017587214474177583233_" gradientUnits="userSpaceOnUse" x1="53.4103" y1="24.134" x2="1.5991" y2="24.134">
		<stop  offset="0" style="stop-color:#2A3E91"/>
		<stop  offset="1" style="stop-color:#0E2356"/>
	</linearGradient>
	<path style="fill:url(#SVGID_00000067225265775588715930000017587214474177583233_);" d="M0,4.31v9.48h8.91v30.17h9.78V13.79h13.65
		c2.38-4.35,6.27-7.78,11.05-9.48H0z"/>
	
		<linearGradient id="SVGID_00000148641480891323089690000017856371076254858667_" gradientUnits="userSpaceOnUse" x1="53.4103" y1="24.1325" x2="1.5991" y2="24.1325">
		<stop  offset="0" style="stop-color:#2A3E91"/>
		<stop  offset="1" style="stop-color:#0E2356"/>
	</linearGradient>
	<path style="fill:url(#SVGID_00000148641480891323089690000017856371076254858667_);" d="M45.96,43.28
		c-8.39-2.19-14.6-10-14.6-19.15c0-9.26,6.27-17.02,14.66-19.14c1.78-0.46,3.74-0.69,6.9-0.69h0.79v9.49h-0.79
		c-3.28,0-5.58,0.63-7.42,1.9c-2.53,1.73-4.37,5-4.37,8.45c0,3.45,1.84,6.73,4.37,8.45c1.84,1.27,4.14,1.9,7.42,1.9h0.77v9.49h-0.77
		C49.87,43.97,47.8,43.74,45.96,43.28z"/>
	<g>
		<g>
			
				<rect x="49.3" y="18.48" transform="matrix(-1.836970e-16 1 -1 -1.836970e-16 75.6296 -27.3646)" class="st5" width="4.39" height="11.3"/>
		</g>
		<g>
			<rect x="49.3" y="18.48" class="st5" width="4.39" height="11.3"/>
		</g>
	</g>
</g>
</svg>
