<?xml version="1.0" encoding="utf-8"?>
<!-- Generator: Adobe Illustrator 28.1.0, SVG Export Plug-In . SVG Version: 6.00 Build 0)  -->
<svg version="1.1" id="Слой_1" xmlns="http://www.w3.org/2000/svg" xmlns:xlink="http://www.w3.org/1999/xlink" x="0px" y="0px"
	 viewBox="0 0 170 50" style="enable-background:new 0 0 170 50;" xml:space="preserve">
<style type="text/css">
	.st0{fill:#FFFFFF;}
	.st1{fill:#DB0819;}
</style>
<g>
	<path class="st0" d="M93.51,4.31c-5.35,0-10.51,2.89-12.53,5.75c-2-2.86-7.18-5.75-12.53-5.75h-9.78v12.42
		c1.94,1.86,3.13,4.51,3.13,7.4s-1.19,5.54-3.13,7.4v12.45h9.78v-29.9c3.75,0.16,8.05,2.81,8.05,8.35v21.55h8.97V22.44
		c0-5.54,4.32-8.18,8.05-8.35v29.9h9.78V4.31H93.51z"/>
	<path class="st0" d="M114.8,13.81v5.75h10.35v9.2H114.8v5.75l15.25-0.01v9.49l-25.02,0.01V4.32h29.89v9.49H114.8z"/>
	<path class="st0" d="M170,34.51v11.2h-9.77v-1.71h-18.69v1.71h-9.77v-11.2h1.44c2.01,0,3.45-0.63,3.45-3.22V4.32h28.46v30.19H170z
		 M155.34,34.51v-20.7h-8.91v17.48c0,1.15-0.11,2.18-0.29,3.22H155.34z"/>
	<path class="st0" d="M0,4.31v9.48h8.91v30.17h9.78V13.79h13.65c2.38-4.35,6.27-7.78,11.05-9.48H0z"/>
	<path class="st0" d="M45.96,43.28c-8.39-2.19-14.6-10-14.6-19.15c0-9.26,6.27-17.02,14.66-19.14c1.78-0.46,3.74-0.69,6.9-0.69h0.79
		v9.49h-0.79c-3.28,0-5.58,0.63-7.42,1.9c-2.53,1.73-4.37,5-4.37,8.45c0,3.45,1.84,6.73,4.37,8.45c1.84,1.27,4.14,1.9,7.42,1.9h0.77
		v9.49h-0.77C49.87,43.97,47.8,43.74,45.96,43.28z"/>
	<g>
		<g>
			
				<rect x="49.3" y="18.48" transform="matrix(-1.836970e-16 1 -1 -1.836970e-16 75.6296 -27.3646)" class="st1" width="4.39" height="11.3"/>
		</g>
		<g>
			<rect x="49.3" y="18.48" class="st1" width="4.39" height="11.3"/>
		</g>
	</g>
</g>
</svg>
